# xmcd
#
# Track frame offsets: 
#        150
#        21220
#        44460
#        61730
#        80662
#        96865
#        118732
#        135912
#        159982
#        177145
#        195720
#
# Disc length: 2917 seconds
#
# Revision: 3
# Processed by: cddbd v1.5.2PL0 Copyright (c) Steve Scherf et al.
# Submitted via: ExactAudioCopy v0.99pb3
#
DISCID=880b630b
DTITLE=Caitlin Cary - While You Weren't Looking
DYEAR=2002
DGENRE=
TTITLE0=Shallow Heart, Shallow Water
TTITLE1=Please Don't Hurry Your Heart
TTITLE2=Fireworks
TTITLE3=What Will You Do?
TTITLE4=Thick Walls Down
TTITLE5=Sorry
TTITLE6=Pony
TTITLE7=The Fair
TTITLE8=Too Many Keys
TTITLE9=Hold On To Me
TTITLE10=I Ain't Found Nobody Yet
EXTD=
EXTT0=
EXTT1=
EXTT2=
EXTT3=
EXTT4=
EXTT5=
EXTT6=
EXTT7=
EXTT8=
EXTT9=
EXTT10=
PLAYORDER=
